# AST/ASF file generated using VICON BodyLanguage
# -----------------------------------------------
:version 1.10
:name VICON
:units
  mass 1.0
  length 0.45
  angle deg
:documentation
   .ast/.asf automatically generated from VICON data using
   VICON BodyBuilder and BodyLanguage model FoxedUp or BRILLIANT.MOD
:root
   order TX TY TZ RX RY RZ
   axis XYZ
   position 0 0 0  
   orientation 0 0 0 
:bonedata
  begin
     id 1 
     name lhipjoint
     direction 0.535335 -0.74333 0.401095 
     length 2.04549 
     axis 0 0 0  XYZ
  end
  begin
     id 2 
     name lfemur
     direction 0.34202 -0.939693 0  
     length 6.95643  
     axis 0 0 20  XYZ
    dof rx ry rz
    limits (-160.0 20.0)
           (-70.0 70.0)
           (-60.0 70.0)
  end
  begin
     id 3 
     name ltibia
     direction 0.34192 -0.939729 0   
     length 5.55969   
     axis 0 0 20   XYZ
    dof rx
    limits (-10.0 170.0)
  end
  begin
     id 4 
     name lfoot
     direction 0.216943 -0.596046 0.773088   
     length 2.27918   
     axis -90 7.62852e-016 20   XYZ
    dof rx rz
    limits (-45.0 90.0)
           (-70.0 20.0)
  end
  begin
     id 5 
     name ltoes
     direction 1.53519e-011 -4.21748e-011 1   
     length 1.05562   
     axis -90 7.62852e-016 20   XYZ
    dof rx
    limits (-90.0 20.0)
  end
  begin
     id 6 
     name rhipjoint
     direction -0.576368 -0.719173 0.38806   
     length 2.1142  
     axis 0 0 0  XYZ 
  end
  begin
     id 7 
     name rfemur
     direction -0.34202 -0.939693 0   
     length 7.07928   
     axis 0 0 -20   XYZ
    dof rx ry rz
    limits (-160.0 20.0)
           (-70.0 70.0)
           (-70.0 60.0)
  end
  begin
     id 8 
     name rtibia
     direction -0.34202 -0.939693 0   
     length 5.79974   
     axis 0 0 -20   XYZ
    dof rx
    limits (-10.0 170.0)
 end
 begin
     id 9 
     name rfoot
     direction -0.189288 -0.520065 0.832888   
     length 2.42173  
     axis -90 -7.62852e-016 -20   XYZ
    dof rx rz
    limits (-45.0 90.0)
           (-20.0 70.0)
  end
  begin
     id 10 
     name rtoes
     direction -1.53574e-011 -4.21658e-011 1   
     length 1.14469   
     axis -90 -7.62852e-016 -20   XYZ
    dof rx
    limits (-90.0 20.0)
  end
  begin
     id 11 
     name lowerback
     direction -0.00135702 0.993803 0.111144   
     length 1.91308   
     axis 0 0 0   XYZ
    dof rx ry rz
    limits (-20.0 45.0)
           (-30.0 30.0)
           (-30.0 30.0)
  end
  begin
     id 12 
     name upperback
     direction -0.0056745 0.999813 0.0184631   
     length 1.9212   
     axis 0 0 0   XYZ
    dof rx ry rz
    limits (-20.0 45.0)
           (-30.0 30.0)
           (-30.0 30.0)
  end
  begin
     id 13 
     name thorax
     direction -0.00733434 0.999426 -0.0330788   
     length 1.94196   
     axis 0 0 0   XYZ
    dof rx ry rz
    limits (-20.0 45.0)
           (-30.0 30.0)
           (-30.0 30.0)
  end
  begin
     id 14 
     name lowerneck
     direction 0.0563074 0.996944 -0.0541571   
     length 2.34257   
     axis 0 0 0   XYZ
    dof rx ry rz
    limits (-20.0 45.0)
           (-30.0 30.0)
           (-30.0 30.0)
  end
  begin
     id 15 
     name upperneck
     direction -0.0544519 0.976166 -0.210085   
     length 2.32506   
     axis 0 0 0   XYZ
    dof rx ry rz
    limits (-20.0 45.0)
           (-30.0 30.0)
           (-30.0 30.0)
  end
  begin
     id 16
     name head
     direction -0.0226035 0.997615 -0.0652205  
     length 2.3648  
     axis 0 0 0   XYZ
    dof rx ry rz
    limits (-20.0 45.0)
           (-30.0 30.0)
           (-30.0 30.0)
  end
  begin
     id 17 
     name lclavicle
     direction 0.92109 0.381297 -0.0787716  
     length 4.0487  
     axis 0 0 0   XYZ
    dof ry rz
    limits (-20.0 10.0)
           (0.0 20.0)
  end
  begin
     id 18 
     name lhumerus
     direction 1 -4.48986e-011 3.56724e-027   
     length 4.94991   
     axis 180 -30 -90   XYZ
    dof rx ry rz
    limits (-60.0 90.0)
           (-90.0 90.0)
           (-90.0 90.0)
  end
  begin
     id 19
     name lradius
     direction 1 -4.48981e-011 8.62147e-027   
     length 2.7606   
     axis 180 -30 -90   XYZ
    dof rx
    limits (-10.0 170.0)
  end
  begin
     id 20
     name lwrist
     direction 1 -4.48989e-011 1.59799e-026   
     length 1.3803   
     axis -1.17785e-014 90 90   XYZ
    dof ry
    limits (-180.0 0.0)
 end
  begin
     id 21 
     name lhand
     direction 1 -4.48896e-011 3.19599e-026   
     length 0.843936   
     axis -2.03931e-014 90 90   XYZ
    dof rx rz
    limits (-90.0 90.0)
           (-45.0 45.0)
  end
  begin
     id 22 
     name lfingers
     direction 1 -4.48887e-011 6.39197e-026   
     length 0.680403   
     axis -4.07862e-014 90 90   XYZ
    dof rx
    limits (0.0 90.0)
  end
  begin
     id 23
     name lthumb
     direction 0.707107 -6.348e-011 0.707107   
     length 0.976926   
     axis -90 45 2.85299e-015   XYZ
    dof rx rz
    limits (-45.0 45.0)
           (-45.0 45.0)
  end
  begin
     id 24 
     name rclavicle
     direction -0.951104 0.307692 -0.026953   
     length 4.21801  
     axis 0 0 0   XYZ 
    dof ry rz
    limits (-10.0 20.0)
           (-20.0 0.0)
  end
  begin
     id 25 
     name rhumerus
     direction -1 -4.4896e-011 -1.8171e-018  
     length 4.32982   
     axis 180 30 90   XYZ
    dof rx ry rz
    limits (-90.0 60.0)
           (-90.0 90.0)
           (-90.0 90.0)
  end
  begin
     id 26 
     name rradius
     direction -1 -4.48959e-011 8.25165e-027   
     length 3.20057   
     axis 180 30 90   XYZ
    dof rx
    limits (-10.0 170.0)
  end
  begin
     id 27 
     name rwrist
     direction -1 -4.48997e-011 1.59799e-026   
     length 1.60029   
     axis -1.17785e-014 -90 -90   XYZ
    dof ry
    limits (-180.0 0.0)
  end
  begin
     id 28
     name rhand
     direction -1 -4.49023e-011 3.19599e-026   
     length 0.960433   
     axis -2.03931e-014 -90 -90   XYZ
    dof rx rz
    limits (-90.0 90.0)
           (-45.0 45.0)
  end
  begin
     id 29
     name rfingers
     direction -1 -4.48802e-011 6.39197e-026   
     length 0.774326   
     axis -4.07862e-014 -90 -90   XYZ
    dof rx
    limits (0.0 90.0)
  end
  begin
     id 30
     name rthumb
     direction -0.707107 -6.34876e-011 0.707107   
     length 1.11178   
     axis -90 -45 -2.85299e-015   XYZ
    dof rx rz
    limits (-45.0 45.0)
           (-45.0 45.0)
  end
:hierarchy
  begin
    root lhipjoint rhipjoint lowerback
    lhipjoint lfemur
    lfemur ltibia
    ltibia lfoot
    lfoot ltoes
    rhipjoint rfemur
    rfemur rtibia
    rtibia rfoot
    rfoot rtoes
    lowerback upperback
    upperback thorax
    thorax lowerneck lclavicle rclavicle
    lowerneck upperneck
    upperneck head
    lclavicle lhumerus
    lhumerus lradius
    lradius lwrist
    lwrist lhand lthumb
    lhand lfingers
    rclavicle rhumerus
    rhumerus rradius
    rradius rwrist
    rwrist rhand rthumb
    rhand rfingers
end

#!OML:ASF C:\KaitlinTest1\Natural Motions\Nikki\Session 2\Nikki.ASF
:FULLY-SPECIFIED
:DEGREES
681
root -18.8381 16.6284 5.05786 -153.736 85.8192 -163.809
lowerback -13.5493 -1.63237 -0.0967758
upperback -4.00302 -1.93751 -0.590582
thorax 3.36072 -0.883406 -0.869874
lowerneck -1.807 1.61704 8.57808
upperneck 27.1505 3.88555 -5.69375
head 9.02704 2.55512 -3.05731
rclavicle -1.06847e-015 -7.95139e-016
rhumerus -42.6336 -22.2171 -79.3538
rradius 18.3797
rwrist 29.4593
rhand -35.7809 3.08228
rfingers 7.12502
rthumb -8.89842 -26.7101
lclavicle -1.06847e-015 -7.95139e-016
lhumerus -42.3321 16.2202 80.3437
lradius 23.9469
lwrist -39.9168
lhand -32.9603 3.62485
lfingers 7.12502
lthumb -6.17585 33.5148
rfemur -7.6772 -16.8022 21.0682
rtibia 11.0494
rfoot -10.7457 12.0708
rtoes -5.64548e-014
lfemur -9.93302 12.0687 -17.8489
ltibia 9.79418
lfoot -2.32047 -16.7123
ltoes -2.06736e-014
682
root -18.8374 16.6275 5.05782 -153.284 85.8254 -163.336
lowerback -13.5316 -1.6267 -0.0630206
upperback -3.99666 -1.93561 -0.582974
thorax 3.35691 -0.882701 -0.88025
lowerneck -1.8143 1.61057 8.57195
upperneck 27.1566 3.87834 -5.70102
head 9.02983 2.55037 -3.05943
rclavicle -5.59082e-015 -7.95139e-016
rhumerus -42.6031 -22.0895 -79.4763
rradius 18.4226
rwrist 29.195
rhand -35.8046 2.98305
rfingers 7.12502
rthumb -8.92123 -26.8083
lclavicle -5.59082e-015 -7.95139e-016
lhumerus -42.3455 16.246 80.329
lradius 23.9755
lwrist -39.8963
lhand -32.9211 3.62731
lfingers 7.12502
lthumb -6.13806 33.5184
rfemur -7.65578 -16.8213 21.093
rtibia 11.0534
rfoot -10.7675 12.1106
rtoes -5.1684e-014
lfemur -9.9004 12.089 -17.816
ltibia 9.7946
lfoot -2.33618 -16.7123
ltoes -1.90833e-014
683
root -18.8375 16.6282 5.05756 -153.493 85.8264 -163.538
lowerback -13.5368 -1.61662 -0.0676972
upperback -3.97265 -1.92164 -0.603993
thorax 3.38452 -0.876109 -0.897912
lowerneck -1.84396 1.60086 8.58711
upperneck 27.1365 3.85002 -5.67654
head 9.02603 2.53893 -3.0555
rclavicle 1.24737e-014 -1.59028e-015
rhumerus -42.582 -22.1639 -79.4739
rradius 18.4267
rwrist 29.2165
rhand -35.835 2.9901
rfingers 7.12502
rthumb -8.95061 -26.8
lclavicle 1.24737e-014 -1.59028e-015
lhumerus -42.2785 16.1231 80.4056
lradius 23.9676
lwrist -39.7194
lhand -32.9642 3.62255
lfingers 7.12502
lthumb -6.17964 33.5124
rfemur -7.65432 -16.8134 21.0711
rtibia 11.0682
rfoot -10.7773 12.0933
rtoes 1.27222e-014
lfemur -9.89414 12.0823 -17.8317
ltibia 9.78905
lfoot -2.33358 -16.7195
ltoes 4.77083e-015
684
root -18.8395 16.6283 5.05881 -153.794 85.8009 -163.853
lowerback -13.5039 -1.63379 -0.0972626
upperback -3.99607 -1.94009 -0.597757
thorax 3.34316 -0.885134 -0.876312
lowerneck -1.83415 1.60025 8.56962
upperneck 27.166 3.85527 -5.67293
head 9.03458 2.5416 -3.05111
rclavicle 9.51682e-015 -3.18055e-015
rhumerus -42.6097 -22.0743 -79.497
rradius 18.4403
rwrist 29.1712
rhand -35.8516 2.95816
rfingers 7.12502
rthumb -8.96663 -26.8313
lclavicle 9.51682e-015 -3.18055e-015
lhumerus -42.3321 16.2437 80.3213
lradius 23.9747
lwrist -39.9402
lhand -32.9437 3.57097
lfingers 7.12502
lthumb -6.15989 33.4614
rfemur -7.67137 -16.8879 21.0885
rtibia 11.0604
rfoot -10.8163 12.1143
rtoes 1.00187e-013
lfemur -9.93615 12.0508 -17.8383
ltibia 9.81416
lfoot -2.33086 -16.6951
ltoes 4.6118e-014
685
root -18.8394 16.6281 5.0591 -153.857 85.8081 -163.903
lowerback -13.4817 -1.62843 -0.112165
upperback -3.99788 -1.93139 -0.596372
thorax 3.32988 -0.880983 -0.864402
lowerneck -1.82962 1.58843 8.58089
upperneck 27.1666 3.84216 -5.68948
head 9.03327 2.53529 -3.06001
rclavicle 1.45858e-014 1.27222e-014
rhumerus -42.6066 -21.9533 -79.5755
rradius 18.4945
rwrist 28.9562
rhand -35.8112 2.89887
rfingers 7.12502
rthumb -8.92758 -26.8923
lclavicle 1.45858e-014 1.27222e-014
lhumerus -42.3448 16.217 80.333
lradius 23.9755
lwrist -39.9293
lhand -32.9498 3.55679
lfingers 7.12502
lthumb -6.16571 33.4471
rfemur -7.65419 -16.8694 21.0776
rtibia 11.0634
rfoot -10.81 12.0996
rtoes -7.95139e-016
lfemur -9.93039 12.0551 -17.8424
ltibia 9.82359
lfoot -2.31866 -16.7165
ltoes 7.95139e-015
686
root -18.8397 16.6282 5.05946 -153.976 85.7977 -164.014
lowerback -13.4646 -1.63637 -0.10955
upperback -3.998 -1.9426 -0.595006
thorax 3.3203 -0.88666 -0.86574
lowerneck -1.80414 1.59527 8.57137
upperneck 27.1506 3.85417 -5.68855
head 9.02364 2.54029 -3.05707
rclavicle 2.41523e-014 1.82882e-014
rhumerus -42.6375 -22.1246 -79.4278
rradius 18.4231
rwrist 29.2745
rhand -35.887 3.07715
rfingers 7.12502
rthumb -9.00076 -26.7108
lclavicle 2.41523e-014 1.82882e-014
lhumerus -42.3405 16.1697 80.3786
lradius 23.9857
lwrist -39.8182
lhand -32.9876 3.56703
lfingers 7.12502
lthumb -6.20228 33.4562
rfemur -7.64207 -16.8621 21.0692
rtibia 11.0642
rfoot -10.801 12.0836
rtoes -1.43125e-014
lfemur -9.92988 12.0426 -17.8396
ltibia 9.8405
lfoot -2.32548 -16.7177
ltoes 7.95139e-015
687
root -18.8389 16.628 5.05925 -153.999 85.8122 -164.037
lowerback -13.4695 -1.62673 -0.109463
upperback -3.99383 -1.92966 -0.601961
thorax 3.32727 -0.880283 -0.8712
lowerneck -1.80677 1.58811 8.56539
upperneck 27.1469 3.84235 -5.68254
head 9.02161 2.53449 -3.05489
rclavicle 5.96354e-016 1.07344e-014
rhumerus -42.6286 -22.0102 -79.5136
rradius 18.4546
rwrist 29.1008
rhand -35.894 3.04432
rfingers 7.12502
rthumb -9.0075 -26.7434
lclavicle 5.96354e-016 1.07344e-014
lhumerus -42.3472 16.2072 80.3614
lradius 23.9955
lwrist -39.8197
lhand -32.9974 3.53389
lfingers 7.12502
lthumb -6.21169 33.4228
rfemur -7.64476 -16.8353 21.0585
rtibia 11.0764
rfoot -10.8064 12.0554
rtoes -5.96354e-014
lfemur -9.91397 12.0542 -17.8507
ltibia 9.82071
lfoot -2.32991 -16.7142
ltoes -1.59028e-014
688
root -18.8392 16.6277 5.05906 -153.821 85.8148 -163.868
lowerback -13.4736 -1.61982 -0.0850333
upperback -3.99777 -1.92329 -0.607804
thorax 3.32439 -0.877023 -0.890075
lowerneck -1.79529 1.57927 8.58686
upperneck 27.1502 3.83596 -5.70833
head 9.02086 2.53176 -3.0683
rclavicle -1.31695e-015 7.95139e-016
rhumerus -42.6356 -22.049 -79.4873
rradius 18.4301
rwrist 29.1247
rhand -35.8854 3.09271
rfingers 7.12502
rthumb -8.99926 -26.6953
lclavicle -1.31695e-015 7.95139e-016
lhumerus -42.3557 16.1744 80.3624
lradius 24.0007
lwrist -39.8302
lhand -32.9235 3.6583
lfingers 7.12502
lthumb -6.14037 33.5493
rfemur -7.66433 -16.8526 21.0731
rtibia 11.0904
rfoot -10.82 12.0848
rtoes 5.56597e-015
lfemur -9.91749 12.0623 -17.843
ltibia 9.80963
lfoot -2.32656 -16.7213
ltoes -1.74931e-014
689
root -18.8382 16.6281 5.05931 -153.903 85.8104 -163.965
lowerback -13.5014 -1.62707 -0.103309
upperback -3.99158 -1.93039 -0.603332
thorax 3.34664 -0.880431 -0.877183
lowerneck -1.81258 1.584 8.54876
upperneck 27.1617 3.83425 -5.66279
head 9.02668 2.5312 -3.0459
rclavicle -7.95139e-015 -1.11319e-014
rhumerus -42.5946 -21.9222 -79.599
rradius 18.4873
rwrist 28.8952
rhand -35.863 3.07107
rfingers 7.12502
rthumb -8.97764 -26.7179
lclavicle -7.95139e-015 -1.11319e-014
lhumerus -42.3277 16.1303 80.3952
lradius 23.9839
lwrist -39.774
lhand -33.002 3.62881
lfingers 7.12502
lthumb -6.21616 33.5176
rfemur -7.68009 -16.8285 21.0669
rtibia 11.101
rfoot -10.7922 12.0468
rtoes 4.05521e-014
lfemur -9.93007 12.0559 -17.8503
ltibia 9.80756
lfoot -2.32638 -16.7215
ltoes 0
690
root -18.8393 16.6269 5.05908 -153.911 85.8154 -163.981
lowerback -13.4907 -1.63179 -0.107284
upperback -3.99436 -1.93649 -0.597002
thorax 3.33821 -0.883505 -0.868955
lowerneck -1.78885 1.59363 8.52257
upperneck 27.1298 3.84509 -5.64349
head 9.0111 2.53496 -3.03361
rclavicle 1.09829e-014 2.38542e-015
rhumerus -42.5928 -21.8826 -79.6006
rradius 18.4866
rwrist 28.9434
rhand -35.8928 3.06107
rfingers 7.12502
rthumb -9.00632 -26.7267
lclavicle 1.09829e-014 2.38542e-015
lhumerus -42.3449 16.1972 80.3727
lradius 23.9976
lwrist -39.8069
lhand -32.9942 3.59442
lfingers 7.12502
lthumb -6.20866 33.4834
rfemur -7.69966 -16.8596 21.0785
rtibia 11.0983
rfoot -10.8082 12.0767
rtoes 7.23576e-014
lfemur -9.9428 12.0601 -17.8554
ltibia 9.81236
lfoot -2.31892 -16.7294
ltoes 7.95139e-015
691
root -18.8387 16.6269 5.05911 -153.979 85.8093 -164.032
lowerback -13.4634 -1.63306 -0.10838
upperback -4.00302 -1.93816 -0.595821
thorax 3.3144 -0.884399 -0.866411
lowerneck -1.79658 1.58503 8.55849
upperneck 27.1792 3.84794 -5.69777
head 9.03155 2.53667 -3.05893
rclavicle -3.77691e-015 -3.97569e-015
rhumerus -42.6116 -21.8786 -79.5884
rradius 18.4769
rwrist 28.937
rhand -35.8896 3.09763
rfingers 7.12502
rthumb -9.0033 -26.6902
lclavicle -3.77691e-015 -3.97569e-015
lhumerus -42.3648 16.1294 80.4162
lradius 24.0041
lwrist -39.6442
lhand -32.9749 3.59928
lfingers 7.12502
lthumb -6.18993 33.4889
rfemur -7.6764 -16.8805 21.071
rtibia 11.0962
rfoot -10.8168 12.0994
rtoes 0
lfemur -9.92598 12.052 -17.8545
ltibia 9.81235
lfoot -2.32422 -16.7237
ltoes -2.06736e-014
692
root -18.838 16.6278 5.05925 -153.73 85.8095 -163.788
lowerback -13.4605 -1.62897 -0.0856326
upperback -4.00968 -1.93556 -0.59562
thorax 3.30511 -0.883022 -0.878383
lowerneck -1.76811 1.58048 8.52376
upperneck 27.1606 3.83414 -5.64849
head 9.01726 2.5315 -3.03695
rclavicle -6.93262e-015 3.18055e-015
rhumerus -42.5997 -21.8144 -79.6632
rradius 18.5209
rwrist 28.7757
rhand -35.8573 2.95091
rfingers 7.12502
rthumb -8.97214 -26.8383
lclavicle -6.93262e-015 3.18055e-015
lhumerus -42.3775 16.2129 80.3431
lradius 23.9547
lwrist -39.8135
lhand -33.0201 3.59629
lfingers 7.12502
lthumb -6.23358 33.4846
rfemur -7.67138 -16.8864 21.089
rtibia 11.0805
rfoot -10.825 12.1146
rtoes -2.46493e-014
lfemur -9.94177 12.0607 -17.8367
ltibia 9.8345
lfoot -2.3204 -16.7319
ltoes 5.56597e-014
